<mxfile host="app.diagrams.net" modified="2023-06-18T07:13:12.018Z" agent="Mozilla/5.0 (Windows NT 10.0; Win64; x64) AppleWebKit/537.36 (KHTML, like Gecko) Chrome/114.0.0.0 Safari/537.36" version="21.3.8" etag="mJMoUOQgz3GSTAxZm0rd" type="github">
  <diagram name="第 1 页" id="qFIYltnvtbXAREbceck3">
    <mxGraphModel>
      <root>
        <mxCell id="0" />
        <mxCell id="1" parent="0" />
      </root>
    </mxGraphModel>
  </diagram>
</mxfile>
